<?xml version="1.0" encoding="UTF-8" standalone="no"?><!DOCTYPE svg PUBLIC "-//W3C//DTD SVG 1.1//EN" "http://www.w3.org/Graphics/SVG/1.1/DTD/svg11.dtd"><svg width="100%" height="100%" viewBox="0 0 7472 4179" version="1.1" xmlns="http://www.w3.org/2000/svg" xmlns:xlink="http://www.w3.org/1999/xlink" xml:space="preserve" xmlns:serif="http://www.serif.com/" style="fill-rule:evenodd;clip-rule:evenodd;stroke-linejoin:round;stroke-miterlimit:2;"><path d="M514.011,2499.082c204.781,-302.68 473.803,-450.312 329.018,-469.451c-129.997,-17.184 -37.168,183.055 -224.623,218.951c-204.847,39.226 -191.047,-33.238 -188.589,-86.063c14.677,-315.383 242.638,-182.829 260.66,-193.195c1.467,-0.844 116.32,-110.814 240.303,-39.814c173.481,99.345 34.889,252.539 20.436,268.515c-10.866,12.011 -426.237,387.728 -237.896,444.801c124.961,37.867 215.26,-190.13 530.387,-414.533c461.625,-328.725 239.553,-444.554 153.999,-750.674c-32.017,-114.562 -158.627,-492.997 152.417,-697.727c124.04,-81.644 395.837,-109.89 432.321,-55.517c33.388,49.759 12.804,90.106 137.701,95.199c130.772,5.333 83.982,107.516 166.415,109.686c136.586,3.595 154.134,-23.324 174.357,26.187c46.866,114.744 -46.512,155.294 -59.079,160.752c-101.116,43.91 54.83,109.579 57.891,118.458c66.872,193.989 -231.462,100.595 -171.506,149.497c4.529,3.694 235.236,82.413 177.074,351.101c-14.767,68.218 -35.993,67.713 -12.29,131.643c101.348,273.345 -40.143,441.129 -64.618,470.152c-29.49,34.97 4.977,96.846 -62.571,215.957c-25.705,45.326 -41.561,45.419 -37.052,628.767c0.761,98.436 180.224,42.994 183.78,240.845c1.093,60.808 -184.315,43.552 -389.24,43.462c-17.214,-0.008 -208.018,-0.091 -213.268,-28.607c-5.136,-27.896 -4.162,-241.859 -87.452,-344.48c-32.71,-40.302 -243.359,126.393 -203.067,131.42c19.048,2.377 236.437,-21.793 241.22,197.739c1.256,57.658 -30.719,66.596 -719.601,43.236c-22.568,-0.765 -233.486,-210.15 -158.377,-410.302c24.763,-65.989 68.232,-86.279 30.557,-133.809c-66.101,-83.391 -56.086,-153.061 -92.863,-141.038c-10.142,3.315 -152.443,85.508 -275.223,23.884c-152.494,-76.537 -97.817,-280.441 -91.22,-305.043Zm180.09,-464.282c10.903,-11.977 100.33,-110.215 186.567,-78.619c239.547,87.765 -117.65,344.34 -233.374,507.605c-103.275,145.701 39.436,398.976 323.652,87.238c174.573,-191.478 180.7,-181.364 385.111,-338.592c266.148,-204.715 195.274,-379.429 256.049,-301.058c165.689,213.663 343.676,352.94 457.182,582.893c56.521,114.506 87.285,141.457 -17.801,213.04c-35.133,23.932 -40.551,32.294 -29.405,530.554c1.538,68.732 180.656,42.015 179.161,147.835c-0.573,40.544 -235.074,26.305 -248.107,26.173c-71.624,-0.724 -19.044,-236.903 -131.105,-358.191c-127.816,-138.34 -282.643,-782.127 -332.433,-814.848c-113.938,-74.88 101.592,361.833 218.589,759.138c30.045,102.029 -443.816,239.594 -88.283,279.358c14.549,1.627 145.272,16.248 147.515,108.297c0.74,30.351 -221.108,26.382 -240.453,26.036c-62.59,-1.12 -36.299,-160.325 -221.098,-164.704c-258.539,-6.127 127.425,-60.013 207.169,-304.399c173.223,-530.866 -421.744,-493.12 -421.246,-353.2c0.225,63.102 31.552,13.888 101.578,-20.898c88.507,-43.967 226.265,-10.516 264.615,73.809c159.284,350.242 -297.736,562 -302.246,576.1c-30.665,95.863 31.119,67.966 130.771,76.951c148.093,13.353 178.979,115.066 112.34,116.808c-17.833,0.466 -15.507,-2.253 -222.982,-0.639c-117.642,0.915 -96.581,-40.731 -159.701,-141.355c-117.446,-187.228 86.858,-299.53 25.508,-361.822c-69.131,-70.193 -60.243,-74.694 -89.284,-170.737c-22.988,-76.024 -175.319,69.964 -292.725,29.532c-356.604,-122.807 219.527,-607.561 232.872,-624.736c64.29,-82.737 13.656,-259.605 -168.294,-93.702c-10.048,-4.621 -20.096,-9.243 -30.144,-13.864Zm1621.607,-872.039c20.819,110.808 177.639,147.59 64.769,151.888c-41.123,1.566 -217.103,61.691 -385.307,-155.197c-8.642,-11.143 -45.347,-91.568 -76.982,-68.989c-35.194,25.119 68.378,174.746 224.27,269.708c30.427,18.535 352.989,132.296 267.777,373.688c-16.961,48.048 -80.874,-35.982 -196.47,-91.094c-0.08,-0.038 -802.069,-261.614 -548.833,-735.421c111.338,-208.315 353.071,-167.869 300.152,-83.036c-18.007,28.865 -245.166,25.189 -246.381,282.568c-1.614,341.876 761.155,524.145 380.193,339.791c-659.894,-319.333 -154.767,-665.604 60.466,-565.248c15.004,6.996 49.236,101.039 109.088,101.648c12,0.122 144.55,1.471 146.657,31.523c3.304,47.13 -38.042,50.101 -51.288,59.504c-51.537,36.583 -47.514,85.224 -48.109,88.667Zm109.434,813.913c13.109,302.695 -68.786,298.061 -76.531,276.459c-228.692,-637.854 -993.363,-493.396 -952.683,-1127.703c8.85,-137.996 58.451,-171.754 55.184,-129.158c-2.993,39.032 -24.014,313.156 121.247,474.072c211.006,233.747 667.556,385.291 528.804,267.45c-75.881,-64.446 -674.088,-174.726 -603.554,-740.668c21.177,-169.915 219.66,-259.149 194.318,-205.448c-11.084,23.488 -143.582,94.786 -118.538,370.379c43.862,482.668 757.676,368.263 851.752,814.616Zm-109.242,354.346c0.397,24.26 4.243,259.265 -120.87,278.166c-56.834,8.586 25.941,-82.037 -418.291,-584.169c-16.879,-19.079 -404.08,-456.747 -180.911,-262.029c478.633,417.615 513.219,482.115 519.715,417.271c7.667,-76.538 -760.879,-624.35 -570.631,-588.057c26.27,5.011 0.079,47.263 274.728,190.467c329.255,171.677 432.46,315.94 496.26,548.349Zm45.542,1080.767c-76.12,-5.661 -89.654,13.558 -104.803,-28.082c-37.389,-102.773 -36.86,-114.315 -154.266,-147.734c-48.799,-13.891 -29.64,-478.828 -12.005,-490.852c48.806,-33.277 146.141,-111.114 146.438,-45.473c1.138,251.07 -2.736,248.765 -1.14,500.61c0.938,148.024 162.93,58.461 177.275,185.599c4.109,36.418 -13.854,22.873 -51.499,25.932Zm-1667.341,-1376.987c10.048,4.621 20.096,9.243 30.144,13.864c-25.677,44.881 -26.293,42.431 -38.544,93.436c-14.542,60.542 -207.597,97.923 -203.551,21.059c12.607,-239.494 137.737,-136.996 211.951,-128.359Zm1442.825,-997.082c-144.955,-64.422 -152.407,-72.938 -141.247,-94.485c59.882,-115.614 309.332,121.483 141.247,94.485Z" style="fill:url(#_Linear1);"/><g><g><path d="M3518.878,1946.276l10.573,-516.516l30.662,2.175l-11.63,514.341c-0.705,38.422 6.872,68.869 22.732,91.342c15.86,22.473 38.239,33.709 67.139,33.709c2.115,0 3.172,2.175 3.172,6.524c0,4.35 -1.057,6.524 -3.172,6.524c-15.507,0 -31.367,-0.362 -47.579,-1.087c-16.212,-0.725 -34.539,-1.087 -54.98,-1.087c-22.556,0 -42.997,0.362 -61.324,1.087c-18.327,0.725 -35.244,1.087 -50.751,1.087c-2.115,0 -3.172,-2.175 -3.172,-6.524c0,-4.35 1.057,-6.524 3.172,-6.524c28.9,0 51.808,-11.236 68.725,-33.709c16.917,-22.473 25.728,-52.92 26.433,-91.342Zm757.031,125.051c1.41,0 2.115,2.175 2.115,6.524c0,4.35 -0.705,6.524 -2.115,6.524c-18.327,0 -39.12,-0.362 -62.381,-1.087c-23.261,-0.725 -47.579,-1.087 -72.954,-1.087c-26.08,0 -50.398,0.362 -72.954,1.087c-22.556,0.725 -42.997,1.087 -61.324,1.087c-2.115,0 -3.172,-2.175 -3.172,-6.524c0,-4.35 1.057,-6.524 3.172,-6.524c33.129,0 54.451,-4.712 63.967,-14.136c9.516,-9.424 13.216,-29.722 11.102,-60.895l-24.318,-482.807l53.923,-86.992l-269.613,650.267c-0.705,2.9 -3.348,4.35 -7.93,4.35c-4.582,0 -7.577,-1.45 -8.987,-4.35l-297.103,-581.76c-26.785,-51.47 -58.857,-77.206 -96.215,-77.206c-2.115,0 -3.172,-2.175 -3.172,-6.524c0,-4.35 1.057,-6.524 3.172,-6.524c14.802,0 30.309,0.362 46.521,1.087c16.212,0.725 29.957,1.087 41.235,1.087c18.327,0 34.362,-0.362 48.107,-1.087c13.745,-0.725 24.494,-1.087 32.248,-1.087c9.868,0 17.446,3.625 22.732,10.874c5.287,7.249 13.921,22.473 25.904,45.671l236.837,456.709l-52.865,97.866l247.41,-583.935c4.229,-10.149 8.635,-17.217 13.216,-21.204c4.582,-3.987 10.749,-5.981 18.503,-5.981c7.049,0 14.45,0.362 22.203,1.087c7.754,0.725 16.917,1.087 27.49,1.087c22.556,0 41.764,-0.362 57.623,-1.087c15.86,-0.725 31.543,-1.087 47.05,-1.087c2.115,0 3.172,2.175 3.172,6.524c0,4.35 -1.057,6.524 -3.172,6.524c-32.424,0 -56.213,6.887 -71.368,20.661c-15.155,13.774 -22.027,35.159 -20.617,64.157l25.375,493.681c1.41,21.023 4.053,36.972 7.93,47.846c3.877,10.874 11.102,18.123 21.675,21.748c10.573,3.625 26.433,5.437 47.579,5.437Z" style="fill:url(#_Linear2);fill-rule:nonzero;"/><path d="M4811.964,2084.376l-467.329,0c-2.115,0 -3.172,-2.175 -3.172,-6.524c0,-4.35 1.057,-6.524 3.172,-6.524c21.851,0 38.063,-1.812 48.636,-5.437c10.573,-3.625 17.622,-10.874 21.146,-21.748c3.524,-10.874 5.287,-26.823 5.287,-47.846l0,-503.467c0,-21.023 -1.762,-36.79 -5.287,-47.302c-3.524,-10.512 -10.573,-17.761 -21.146,-21.748c-10.573,-3.987 -26.785,-5.981 -48.636,-5.981c-2.115,0 -3.172,-2.175 -3.172,-6.524c0,-4.35 1.057,-6.524 3.172,-6.524l448.298,0c7.049,0 10.573,3.262 10.573,9.787l2.115,144.625c0,1.45 -1.762,2.537 -5.287,3.262c-3.524,0.725 -5.991,0 -7.401,-2.175c-11.278,-42.771 -30.309,-74.125 -57.095,-94.06c-26.785,-19.936 -62.029,-29.904 -105.731,-29.904l-31.719,0c-14.097,0 -25.728,1.994 -34.891,5.981c-9.163,3.987 -15.86,10.33 -20.089,19.03c-4.229,8.699 -6.344,19.573 -6.344,32.622l0,498.03c0,13.774 1.762,25.373 5.287,34.797c3.524,9.424 8.811,16.311 15.86,20.661c7.049,4.35 16.212,6.524 27.49,6.524l34.891,0c54.98,0 99.034,-11.599 132.163,-34.797c33.129,-23.198 57.447,-59.082 72.954,-107.653c0.705,-2.175 2.996,-2.719 6.872,-1.631c3.877,1.087 5.815,2.356 5.815,3.806c-2.819,21.023 -5.287,45.852 -7.401,74.487c-2.115,28.635 -3.172,55.276 -3.172,79.924c0,10.874 -5.287,16.311 -15.86,16.311Zm-59.209,-242.491c0,-29.722 -10.925,-53.101 -32.776,-70.137c-21.851,-17.036 -53.923,-25.554 -96.215,-25.554l-142.736,0l0,-30.447l143.794,0c41.587,0 73.13,-7.431 94.629,-22.292c21.499,-14.861 32.248,-34.978 32.248,-60.351c0,-2.175 1.938,-3.262 5.815,-3.262c3.877,0 5.815,1.087 5.815,3.262c0,23.923 -0.176,42.59 -0.529,56.001c-0.352,13.411 -0.529,27.366 -0.529,41.865c0,18.123 0.529,35.884 1.586,53.283c1.057,17.398 1.586,36.609 1.586,57.632c0,1.45 -2.115,2.175 -6.344,2.175c-4.229,0 -6.344,-0.725 -6.344,-2.175Z" style="fill:url(#_Linear3);fill-rule:nonzero;"/><path d="M5110.124,1493.917l0,498.03c0,17.761 1.41,31.082 4.229,39.962c2.819,8.88 8.602,14.771 17.346,17.67c8.756,2.9 21.653,4.35 38.691,4.35l35.948,0c54.98,0 102.559,-15.224 142.736,-45.671c40.178,-30.447 66.963,-71.044 80.355,-121.789c0.705,-2.175 2.819,-2.9 6.344,-2.175c3.524,0.725 5.287,2.175 5.287,4.35c-2.115,23.923 -4.229,52.677 -6.344,86.262c-2.115,33.585 -3.172,64.638 -3.172,93.16c0,10.874 -5.419,16.311 -16.256,16.311l-498.652,0c-1.41,0 -2.115,-2.175 -2.115,-6.524c0,-4.35 0.705,-6.524 2.115,-6.524c21.664,0 37.914,-1.812 48.752,-5.437c10.837,-3.625 18.106,-10.874 21.807,-21.748c3.712,-10.874 5.567,-26.823 5.567,-47.846l0,-503.467c0,-21.023 -1.856,-36.79 -5.567,-47.302c-3.701,-10.512 -10.97,-17.761 -21.807,-21.748c-10.837,-3.987 -27.088,-5.981 -48.752,-5.981c-1.41,0 -2.115,-2.175 -2.115,-6.524c0,-4.35 0.705,-6.524 2.115,-6.524c16.917,0 37.099,0.544 60.547,1.631c23.459,1.087 47.915,1.631 73.367,1.631c27.027,0 51.825,-0.544 74.391,-1.631c22.567,-1.087 42.65,-1.631 60.25,-1.631c2.115,0 3.172,2.175 3.172,6.524c0,4.35 -1.057,6.524 -3.172,6.524c-21.366,0 -37.391,1.994 -48.074,5.981c-10.683,3.987 -17.853,11.418 -21.51,22.292c-3.657,10.874 -5.485,26.823 -5.485,47.846Z" style="fill:url(#_Linear4);fill-rule:nonzero;"/><path d="M5701.158,1996.297c0,21.023 1.762,36.972 5.287,47.846c3.524,10.874 10.573,18.123 21.146,21.748c10.573,3.625 26.785,5.437 48.636,5.437c2.115,0 3.172,2.175 3.172,6.524c0,4.35 -1.057,6.524 -3.172,6.524c-18.503,0 -38.939,-0.362 -61.307,-1.087c-22.358,-0.725 -47.034,-1.087 -74.028,-1.087c-25.662,0 -49.969,0.362 -72.921,1.087c-22.941,0.725 -43.746,1.087 -62.414,1.087c-1.41,0 -2.115,-2.175 -2.115,-6.524c0,-4.35 0.848,-6.524 2.544,-6.524c21.421,0 37.628,-1.812 48.62,-5.437c11.003,-3.625 18.442,-10.874 22.319,-21.748c3.877,-10.874 5.815,-26.823 5.815,-47.846l0,-503.467c0,-21.023 -1.861,-36.79 -5.584,-47.302c-3.712,-10.512 -11.14,-17.761 -22.286,-21.748c-11.146,-3.987 -27.584,-5.981 -49.313,-5.981c-1.41,0 -2.115,-2.175 -2.115,-6.524c0,-4.35 0.705,-6.524 2.115,-6.524c18.668,0 39.473,0.544 62.414,1.631c22.952,1.087 47.259,1.631 72.921,1.631c26.994,0 51.863,-0.544 74.606,-1.631c22.754,-1.087 42.997,-1.631 60.729,-1.631c2.115,0 3.172,2.175 3.172,6.524c0,4.35 -1.057,6.524 -3.172,6.524c-21.366,0 -37.391,2.175 -48.074,6.524c-10.683,4.35 -17.853,11.961 -21.51,22.835c-3.657,10.874 -5.485,26.823 -5.485,47.846l0,501.293Z" style="fill:url(#_Linear5);fill-rule:nonzero;"/><path d="M6426.47,1543.937c0,-38.422 -8.635,-69.05 -25.904,-91.886c-17.269,-22.835 -41.411,-34.253 -72.425,-34.253c-1.41,0 -2.115,-2.175 -2.115,-6.524c0,-4.35 0.705,-6.524 2.115,-6.524c17.622,0 35.772,0.544 54.451,1.631c18.679,1.087 38.944,1.631 60.795,1.631c19.032,0 37.711,-0.544 56.037,-1.631c18.327,-1.087 35.244,-1.631 50.751,-1.631c1.41,0 2.115,2.175 2.115,6.524c0,4.35 -0.705,6.524 -2.115,6.524c-28.195,0 -49.87,11.418 -65.024,34.253c-15.155,22.835 -22.732,53.464 -22.732,91.886l0,302.298c0,51.47 -10.925,96.235 -32.776,134.294c-21.851,38.059 -52.513,67.419 -91.986,88.08c-39.473,20.661 -85.642,30.991 -138.507,30.991c-51.456,0 -97.448,-10.149 -137.978,-30.447c-40.53,-20.298 -72.249,-49.477 -95.158,-87.536c-22.908,-38.059 -34.362,-83.911 -34.362,-137.556l0,-351.231c0,-21.023 -1.762,-36.79 -5.287,-47.302c-3.524,-10.512 -10.749,-17.761 -21.675,-21.748c-10.925,-3.987 -26.961,-5.981 -48.107,-5.981c-2.115,0 -3.172,-2.175 -3.172,-6.524c0,-4.35 1.057,-6.524 3.172,-6.524c18.327,0 38.768,0.544 61.324,1.631c22.556,1.087 46.521,1.631 71.897,1.631c26.785,0 51.456,-0.544 74.011,-1.631c22.556,-1.087 42.645,-1.631 60.266,-1.631c2.115,0 3.172,2.175 3.172,6.524c0,4.35 -1.057,6.524 -3.172,6.524c-21.146,0 -37.006,2.175 -47.579,6.524c-10.573,4.35 -17.798,11.961 -21.675,22.835c-3.877,10.874 -5.815,26.823 -5.815,47.846l0,310.997c0,89.167 17.269,153.686 51.808,193.558c34.539,39.871 80.708,59.807 138.507,59.807c58.504,0 104.321,-18.305 137.45,-54.914c33.129,-36.609 49.693,-88.986 49.693,-157.13l0,-303.385Z" style="fill:url(#_Linear6);fill-rule:nonzero;"/><path d="M6737.319,1514.577c0,27.548 6.872,51.652 20.617,72.312c13.745,20.661 31.719,39.328 53.923,56.001c22.203,16.674 45.64,33.347 70.311,50.021c26.785,17.398 52.337,35.703 76.655,54.914c24.318,19.211 44.407,41.321 60.266,66.332c15.86,25.01 23.789,54.914 23.789,89.711c0,38.422 -10.044,72.131 -30.133,101.128c-20.089,28.997 -47.226,51.652 -81.413,67.963c-34.186,16.311 -73.13,24.467 -116.832,24.467c-21.146,0 -43.173,-2.175 -66.082,-6.524c-22.908,-4.35 -43.702,-9.787 -62.381,-16.311c-18.679,-6.524 -32.248,-13.411 -40.706,-20.661c-2.819,-2.175 -5.287,-4.531 -7.401,-7.068c-2.115,-2.537 -3.172,-7.068 -3.172,-13.593l-3.172,-172.897c-0.705,-3.625 0.881,-5.618 4.758,-5.981c3.877,-0.362 6.168,0.906 6.872,3.806c10.573,22.473 22.203,46.215 34.891,71.225c12.688,25.01 26.961,48.027 42.821,69.05c15.86,21.023 33.658,38.24 53.394,51.652c19.736,13.411 42.292,20.117 67.668,20.117c16.212,0 31.719,-2.9 46.521,-8.699c14.802,-5.799 26.961,-16.311 36.477,-31.535c9.516,-15.224 14.274,-36.247 14.274,-63.069c0,-34.072 -7.401,-63.251 -22.203,-87.536c-14.802,-24.285 -33.834,-45.671 -57.095,-64.157c-23.261,-18.486 -47.579,-36.066 -72.954,-52.739c-24.67,-16.674 -48.284,-33.891 -70.84,-51.652c-22.556,-17.761 -40.883,-38.059 -54.98,-60.895c-14.097,-22.835 -21.146,-50.202 -21.146,-82.099c0,-40.596 11.102,-73.762 33.305,-99.497c22.203,-25.735 50.398,-44.765 84.585,-57.089c34.186,-12.324 68.901,-18.486 104.145,-18.486c25.375,0 50.751,2.356 76.126,7.068c25.375,4.712 45.464,10.33 60.266,16.855c7.049,2.9 11.454,6.162 13.216,9.787c1.762,3.625 2.643,7.612 2.643,11.961l0,159.848c0,2.175 -1.586,3.806 -4.758,4.893c-3.172,1.087 -5.463,0.544 -6.872,-1.631c-4.229,-8.699 -10.221,-23.017 -17.974,-42.952c-7.754,-19.936 -17.974,-40.778 -30.662,-62.526c-12.688,-21.748 -28.9,-40.415 -48.636,-56.001c-19.736,-15.586 -43.702,-23.379 -71.897,-23.379c-17.622,0 -33.658,3.625 -48.107,10.874c-14.45,7.249 -26.08,17.942 -34.891,32.078c-8.811,14.136 -13.216,32.441 -13.216,54.914Z" style="fill:url(#_Linear7);fill-rule:nonzero;"/></g><g><path d="M3531.608,2782.653l0,-188.378l70.486,0c14.422,0 26.556,2.523 36.401,7.568c9.847,5.045 17.294,12.095 22.342,21.149c5.049,9.054 7.574,19.565 7.574,31.534c0,12.029 -2.547,22.463 -7.641,31.303c-5.094,8.839 -12.604,15.66 -22.53,20.462c-9.925,4.8 -22.159,7.2 -36.704,7.2l-50.247,0l0,-27.964l45.789,0c8.55,0 15.526,-1.204 20.93,-3.611c5.405,-2.407 9.407,-5.915 12.007,-10.523c2.6,-4.609 3.9,-10.231 3.9,-16.866c0,-6.743 -1.3,-12.487 -3.9,-17.234c-2.6,-4.748 -6.615,-8.394 -12.046,-10.94c-5.431,-2.546 -12.449,-3.819 -21.052,-3.819l-31.548,0l0,160.119l-33.76,0Zm105.947,0l-45.696,-85.424l36.885,0l46.636,85.424l-37.826,0Z" style="fill:url(#_Linear8);fill-rule:nonzero;"/><path d="M3700.515,2782.653l0,-188.378l122.351,0l0,28.43l-88.59,0l0,50.794l82.077,0l0,28.067l-82.077,0l0,52.655l89.138,0l0,28.43l-122.898,0Z" style="fill:url(#_Linear9);fill-rule:nonzero;"/><path d="M3921.036,2782.653l-47.699,0l0,-29.25l46,0c13.185,0 24.192,-2.405 33.019,-7.216c8.829,-4.811 15.456,-12.05 19.883,-21.718c4.428,-9.668 6.641,-21.735 6.641,-36.202c0,-14.389 -2.215,-26.377 -6.645,-35.963c-4.43,-9.587 -10.982,-16.781 -19.656,-21.58c-8.672,-4.799 -19.449,-7.198 -32.332,-7.198l-47.831,0l0,-29.25l49.884,0c18.738,0 34.807,3.759 48.209,11.276c13.401,7.516 23.708,18.298 30.92,32.348c7.212,14.048 10.817,30.837 10.817,50.368c0,19.608 -3.612,36.464 -10.835,50.567c-7.224,14.102 -17.642,24.931 -31.255,32.486c-13.613,7.555 -29.986,11.333 -49.119,11.333Zm-29.989,-188.378l0,188.378l-33.76,0l0,-188.378l33.76,0Z" style="fill:url(#_Linear10);fill-rule:nonzero;"/><path d="M4044.273,2782.653l0,-188.378l122.351,0l0,28.43l-88.59,0l0,50.794l82.077,0l0,28.067l-82.077,0l0,52.655l89.138,0l0,28.43l-122.898,0Z" style="fill:url(#_Linear11);fill-rule:nonzero;"/><path d="M4201.044,2782.653l0,-188.378l120.6,0l0,28.43l-86.84,0l0,56.559l78.425,0l0,28.067l-78.425,0l0,75.321l-33.76,0Z" style="fill:url(#_Linear12);fill-rule:nonzero;"/><rect x="4353.263" y="2594.275" width="33.76" height="188.378" style="fill:url(#_Linear13);fill-rule:nonzero;"/><path d="M4424.948,2782.653l0,-188.378l38.15,0l65.193,103.738c2.689,4.303 5.558,9.171 8.605,14.606c3.049,5.434 6.207,11.508 9.476,18.221c3.269,6.714 6.52,14.161 9.753,22.34l-3.779,0c-0.636,-7.097 -1.176,-14.379 -1.62,-21.844c-0.444,-7.466 -0.784,-14.549 -1.019,-21.25c-0.236,-6.701 -0.354,-12.369 -0.354,-17.005l0,-98.807l34.305,0l0,188.378l-38.312,0l-58.759,-93.377c-3.695,-6.004 -7.199,-11.913 -10.511,-17.726c-3.312,-5.814 -6.862,-12.393 -10.65,-19.737c-3.788,-7.343 -8.371,-16.203 -13.749,-26.58l4.745,0c0.512,9.173 0.99,17.872 1.432,26.099c0.444,8.226 0.801,15.577 1.073,22.054c0.271,6.477 0.407,11.719 0.407,15.726l0,93.539l-34.386,0Z" style="fill:url(#_Linear14);fill-rule:nonzero;"/><rect x="4621.543" y="2594.275" width="33.76" height="188.378" style="fill:url(#_Linear15);fill-rule:nonzero;"/><path d="M4693.228,2782.653l0,-188.378l38.15,0l65.193,103.738c2.689,4.303 5.558,9.171 8.605,14.606c3.049,5.434 6.207,11.508 9.476,18.221c3.269,6.714 6.52,14.161 9.753,22.34l-3.779,0c-0.636,-7.097 -1.176,-14.379 -1.62,-21.844c-0.444,-7.466 -0.784,-14.549 -1.019,-21.25c-0.236,-6.701 -0.354,-12.369 -0.354,-17.005l0,-98.807l34.305,0l0,188.378l-38.312,0l-58.759,-93.377c-3.695,-6.004 -7.199,-11.913 -10.511,-17.726c-3.312,-5.814 -6.862,-12.393 -10.65,-19.737c-3.788,-7.343 -8.371,-16.203 -13.749,-26.58l4.745,0c0.512,9.173 0.99,17.872 1.432,26.099c0.444,8.226 0.801,15.577 1.073,22.054c0.271,6.477 0.407,11.719 0.407,15.726l0,93.539l-34.386,0Z" style="fill:url(#_Linear16);fill-rule:nonzero;"/><path d="M4971.14,2785.181c-17.318,0 -32.518,-3.911 -45.601,-11.734c-13.083,-7.824 -23.286,-18.956 -30.609,-33.395c-7.322,-14.44 -10.983,-31.564 -10.983,-51.371c0,-20.248 3.76,-37.6 11.28,-52.055c7.52,-14.455 17.774,-25.548 30.763,-33.28c12.99,-7.733 27.687,-11.6 44.09,-11.6c10.37,0 20.041,1.513 29.013,4.54c8.974,3.025 16.98,7.337 24.019,12.937c7.04,5.6 12.815,12.233 17.325,19.899c4.509,7.665 7.485,16.109 8.927,25.333l-34.428,0c-1.513,-5.037 -3.606,-9.549 -6.278,-13.534c-2.672,-3.985 -5.887,-7.394 -9.644,-10.227c-3.757,-2.834 -8.016,-4.99 -12.775,-6.468c-4.758,-1.479 -9.996,-2.218 -15.715,-2.218c-10.131,0 -19.176,2.556 -27.133,7.669c-7.956,5.112 -14.202,12.611 -18.739,22.496c-4.536,9.885 -6.803,21.964 -6.803,36.235c0,14.224 2.259,26.281 6.776,36.17c4.518,9.888 10.787,17.417 18.806,22.587c8.019,5.169 17.317,7.754 27.893,7.754c9.587,0 17.903,-1.852 24.948,-5.557c7.046,-3.706 12.474,-8.967 16.286,-15.782c3.811,-6.815 5.717,-14.853 5.717,-24.114l7.799,1.252l-51.322,0l0,-26.538l76.323,0l0,22.565c0,16.168 -3.436,30.113 -10.308,41.834c-6.871,11.721 -16.313,20.751 -28.328,27.091c-12.013,6.34 -25.779,9.51 -41.298,9.51Z" style="fill:url(#_Linear17);fill-rule:nonzero;"/><path d="M5215.178,2785.576c-14.572,0 -27.247,-2.275 -38.023,-6.825c-10.775,-4.55 -19.184,-11.167 -25.226,-19.851c-6.041,-8.685 -9.319,-19.236 -9.836,-31.652l33.255,0c0.553,6.594 2.614,12.075 6.181,16.442c3.569,4.366 8.259,7.628 14.069,9.786c5.812,2.157 12.247,3.236 19.306,3.236c7.421,0 13.97,-1.133 19.648,-3.398c5.677,-2.266 10.125,-5.45 13.344,-9.551c3.219,-4.102 4.828,-8.845 4.828,-14.229c0,-4.916 -1.419,-8.974 -4.257,-12.175c-2.837,-3.202 -6.806,-5.903 -11.908,-8.105c-5.101,-2.202 -11.068,-4.154 -17.901,-5.857l-21.392,-5.583c-15.686,-4.025 -27.948,-10.139 -36.787,-18.344c-8.838,-8.205 -13.257,-18.954 -13.257,-32.247c0,-11.106 3.002,-20.823 9.006,-29.152c6.004,-8.328 14.19,-14.798 24.559,-19.409c10.37,-4.611 22.124,-6.916 35.262,-6.916c13.421,0 25.174,2.32 35.26,6.961c10.087,4.641 17.981,11.037 23.684,19.187c5.702,8.149 8.677,17.487 8.923,28.012l-32.707,0c-0.853,-8.094 -4.47,-14.36 -10.851,-18.798c-6.381,-4.439 -14.645,-6.659 -24.794,-6.659c-7.059,0 -13.151,1.07 -18.277,3.21c-5.124,2.139 -9.054,5.073 -11.789,8.803c-2.734,3.728 -4.101,7.981 -4.101,12.757c0,5.27 1.619,9.589 4.858,12.955c3.238,3.366 7.326,6.06 12.264,8.082c4.939,2.022 9.926,3.664 14.962,4.929l17.609,4.5c6.969,1.651 13.752,3.885 20.347,6.701c6.597,2.816 12.532,6.35 17.807,10.602c5.274,4.252 9.46,9.4 12.556,15.442c3.097,6.041 4.646,13.156 4.646,21.347c0,11.041 -2.813,20.761 -8.439,29.157c-5.625,8.396 -13.749,14.935 -24.373,19.618c-10.623,4.683 -23.44,7.025 -38.452,7.025Z" style="fill:url(#_Linear18);fill-rule:nonzero;"/><path d="M5393.795,2785.415c-15.32,0 -28.719,-2.885 -40.196,-8.654c-11.477,-5.771 -20.379,-13.781 -26.706,-24.031c-6.327,-10.251 -9.49,-22.083 -9.49,-35.495l0,-122.959l33.76,0l0,120.197c0,7.896 1.752,14.909 5.255,21.036c3.503,6.128 8.44,10.949 14.81,14.464c6.37,3.514 13.893,5.27 22.567,5.27c8.705,0 16.237,-1.757 22.595,-5.27c6.36,-3.515 11.277,-8.336 14.753,-14.464c3.475,-6.128 5.213,-13.14 5.213,-21.036l0,-120.197l33.76,0l0,122.959c0,13.412 -3.171,25.243 -9.512,35.495c-6.341,10.25 -15.231,18.26 -26.67,24.031c-11.439,5.77 -24.819,8.654 -40.139,8.654Z" style="fill:url(#_Linear19);fill-rule:nonzero;"/><path d="M5588.215,2785.181c-16.492,0 -31.236,-3.83 -44.232,-11.489c-12.994,-7.661 -23.232,-18.703 -30.712,-33.128c-7.479,-14.425 -11.219,-31.749 -11.219,-51.974c0,-20.339 3.763,-37.728 11.288,-52.167c7.525,-14.44 17.793,-25.496 30.803,-33.168c13.01,-7.673 27.701,-11.509 44.072,-11.509c10.313,0 19.962,1.459 28.948,4.378c8.987,2.917 16.988,7.181 24.004,12.791c7.017,5.61 12.802,12.449 17.356,20.517c4.555,8.068 7.585,17.251 9.089,27.551l-34.033,0c-1.046,-5.61 -2.903,-10.571 -5.571,-14.883c-2.668,-4.313 -5.985,-7.973 -9.95,-10.979c-3.965,-3.008 -8.431,-5.278 -13.395,-6.811c-4.964,-1.534 -10.264,-2.301 -15.9,-2.301c-10.293,0 -19.422,2.585 -27.387,7.756c-7.965,5.169 -14.193,12.704 -18.684,22.605c-4.491,9.9 -6.736,21.973 -6.736,36.222c0,14.376 2.274,26.506 6.821,36.391c4.549,9.885 10.79,17.346 18.725,22.384c7.935,5.036 16.991,7.554 27.17,7.554c5.637,0 10.929,-0.78 15.879,-2.341c4.949,-1.561 9.422,-3.831 13.417,-6.811c3.996,-2.98 7.343,-6.64 10.041,-10.979c2.698,-4.339 4.586,-9.287 5.662,-14.843l34.033,0c-1.238,9.033 -3.99,17.479 -8.257,25.337c-4.266,7.858 -9.838,14.788 -16.718,20.789c-6.878,6.001 -14.902,10.687 -24.071,14.057c-9.169,3.369 -19.316,5.053 -30.441,5.053Z" style="fill:url(#_Linear20);fill-rule:nonzero;"/><path d="M5778.995,2785.181c-16.492,0 -31.236,-3.83 -44.232,-11.489c-12.994,-7.661 -23.232,-18.703 -30.712,-33.128c-7.479,-14.425 -11.219,-31.749 -11.219,-51.974c0,-20.339 3.763,-37.728 11.288,-52.167c7.525,-14.44 17.793,-25.496 30.803,-33.168c13.01,-7.673 27.701,-11.509 44.072,-11.509c10.313,0 19.962,1.459 28.948,4.378c8.987,2.917 16.988,7.181 24.004,12.791c7.017,5.61 12.802,12.449 17.356,20.517c4.555,8.068 7.585,17.251 9.089,27.551l-34.033,0c-1.046,-5.61 -2.903,-10.571 -5.571,-14.883c-2.668,-4.313 -5.985,-7.973 -9.95,-10.979c-3.965,-3.008 -8.431,-5.278 -13.395,-6.811c-4.964,-1.534 -10.264,-2.301 -15.9,-2.301c-10.293,0 -19.422,2.585 -27.387,7.756c-7.965,5.169 -14.193,12.704 -18.684,22.605c-4.491,9.9 -6.736,21.973 -6.736,36.222c0,14.376 2.274,26.506 6.821,36.391c4.549,9.885 10.79,17.346 18.725,22.384c7.935,5.036 16.991,7.554 27.17,7.554c5.637,0 10.929,-0.78 15.879,-2.341c4.949,-1.561 9.422,-3.831 13.417,-6.811c3.996,-2.98 7.343,-6.64 10.041,-10.979c2.698,-4.339 4.586,-9.287 5.662,-14.843l34.033,0c-1.238,9.033 -3.99,17.479 -8.257,25.337c-4.266,7.858 -9.838,14.788 -16.718,20.789c-6.878,6.001 -14.902,10.687 -24.071,14.057c-9.169,3.369 -19.316,5.053 -30.441,5.053Z" style="fill:url(#_Linear21);fill-rule:nonzero;"/><path d="M5889.489,2782.653l0,-188.378l122.351,0l0,28.43l-88.59,0l0,50.794l82.077,0l0,28.067l-82.077,0l0,52.655l89.138,0l0,28.43l-122.898,0Z" style="fill:url(#_Linear22);fill-rule:nonzero;"/><path d="M6112.437,2785.576c-14.572,0 -27.247,-2.275 -38.023,-6.825c-10.775,-4.55 -19.184,-11.167 -25.226,-19.851c-6.041,-8.685 -9.319,-19.236 -9.836,-31.652l33.255,0c0.553,6.594 2.614,12.075 6.181,16.442c3.569,4.366 8.259,7.628 14.069,9.786c5.812,2.157 12.247,3.236 19.306,3.236c7.421,0 13.97,-1.133 19.648,-3.398c5.677,-2.266 10.125,-5.45 13.344,-9.551c3.219,-4.102 4.828,-8.845 4.828,-14.229c0,-4.916 -1.419,-8.974 -4.257,-12.175c-2.837,-3.202 -6.806,-5.903 -11.908,-8.105c-5.101,-2.202 -11.068,-4.154 -17.901,-5.857l-21.392,-5.583c-15.686,-4.025 -27.948,-10.139 -36.787,-18.344c-8.838,-8.205 -13.257,-18.954 -13.257,-32.247c0,-11.106 3.002,-20.823 9.006,-29.152c6.004,-8.328 14.19,-14.798 24.559,-19.409c10.37,-4.611 22.124,-6.916 35.262,-6.916c13.421,0 25.174,2.32 35.26,6.961c10.087,4.641 17.981,11.037 23.684,19.187c5.702,8.149 8.677,17.487 8.923,28.012l-32.707,0c-0.853,-8.094 -4.47,-14.36 -10.851,-18.798c-6.381,-4.439 -14.645,-6.659 -24.794,-6.659c-7.059,0 -13.151,1.07 -18.277,3.21c-5.124,2.139 -9.054,5.073 -11.789,8.803c-2.734,3.728 -4.101,7.981 -4.101,12.757c0,5.27 1.619,9.589 4.858,12.955c3.238,3.366 7.326,6.06 12.264,8.082c4.939,2.022 9.926,3.664 14.962,4.929l17.609,4.5c6.969,1.651 13.752,3.885 20.347,6.701c6.597,2.816 12.532,6.35 17.807,10.602c5.274,4.252 9.46,9.4 12.556,15.442c3.097,6.041 4.646,13.156 4.646,21.347c0,11.041 -2.813,20.761 -8.439,29.157c-5.625,8.396 -13.749,14.935 -24.373,19.618c-10.623,4.683 -23.44,7.025 -38.452,7.025Z" style="fill:url(#_Linear23);fill-rule:nonzero;"/><path d="M6280.839,2785.576c-14.572,0 -27.247,-2.275 -38.023,-6.825c-10.775,-4.55 -19.184,-11.167 -25.226,-19.851c-6.041,-8.685 -9.319,-19.236 -9.836,-31.652l33.255,0c0.553,6.594 2.614,12.075 6.181,16.442c3.569,4.366 8.259,7.628 14.069,9.786c5.812,2.157 12.247,3.236 19.306,3.236c7.421,0 13.97,-1.133 19.648,-3.398c5.677,-2.266 10.125,-5.45 13.344,-9.551c3.219,-4.102 4.828,-8.845 4.828,-14.229c0,-4.916 -1.419,-8.974 -4.257,-12.175c-2.837,-3.202 -6.806,-5.903 -11.908,-8.105c-5.101,-2.202 -11.068,-4.154 -17.901,-5.857l-21.392,-5.583c-15.686,-4.025 -27.948,-10.139 -36.787,-18.344c-8.838,-8.205 -13.257,-18.954 -13.257,-32.247c0,-11.106 3.002,-20.823 9.006,-29.152c6.004,-8.328 14.19,-14.798 24.559,-19.409c10.37,-4.611 22.124,-6.916 35.262,-6.916c13.421,0 25.174,2.32 35.26,6.961c10.087,4.641 17.981,11.037 23.684,19.187c5.702,8.149 8.677,17.487 8.923,28.012l-32.707,0c-0.853,-8.094 -4.47,-14.36 -10.851,-18.798c-6.381,-4.439 -14.645,-6.659 -24.794,-6.659c-7.059,0 -13.151,1.07 -18.277,3.21c-5.124,2.139 -9.054,5.073 -11.789,8.803c-2.734,3.728 -4.101,7.981 -4.101,12.757c0,5.27 1.619,9.589 4.858,12.955c3.238,3.366 7.326,6.06 12.264,8.082c4.939,2.022 9.926,3.664 14.962,4.929l17.609,4.5c6.969,1.651 13.752,3.885 20.347,6.701c6.597,2.816 12.532,6.35 17.807,10.602c5.274,4.252 9.46,9.4 12.556,15.442c3.097,6.041 4.646,13.156 4.646,21.347c0,11.041 -2.813,20.761 -8.439,29.157c-5.625,8.396 -13.749,14.935 -24.373,19.618c-10.623,4.683 -23.44,7.025 -38.452,7.025Z" style="fill:url(#_Linear24);fill-rule:nonzero;"/></g></g><rect x="2952.128" y="0" width="56.274" height="4178.365" style="fill:url(#_Linear25);"/><defs><linearGradient id="_Linear1" x1="0" y1="0" x2="1" y2="0" gradientUnits="userSpaceOnUse" gradientTransform="matrix(2060.429959,0,0,2060.429959,428.706886,2086.884596)"><stop offset="0" style="stop-color:#8c7030;stop-opacity:1"/><stop offset="0.71" style="stop-color:#b59751;stop-opacity:1"/><stop offset="1" style="stop-color:#c9aa61;stop-opacity:1"/></linearGradient><linearGradient id="_Linear2" x1="0" y1="0" x2="1" y2="0" gradientUnits="userSpaceOnUse" gradientTransform="matrix(3702.687102,0,0,3702.687102,3395.172946,1738.03852)"><stop offset="0" style="stop-color:#8c7030;stop-opacity:1"/><stop offset="0.44" style="stop-color:#9e813f;stop-opacity:1"/><stop offset="1" style="stop-color:#c9aa61;stop-opacity:1"/></linearGradient><linearGradient id="_Linear3" x1="0" y1="0" x2="1" y2="0" gradientUnits="userSpaceOnUse" gradientTransform="matrix(3702.687102,0,0,3702.687102,3395.172946,1738.03852)"><stop offset="0" style="stop-color:#8c7030;stop-opacity:1"/><stop offset="0.44" style="stop-color:#9e813f;stop-opacity:1"/><stop offset="1" style="stop-color:#c9aa61;stop-opacity:1"/></linearGradient><linearGradient id="_Linear4" x1="0" y1="0" x2="1" y2="0" gradientUnits="userSpaceOnUse" gradientTransform="matrix(3702.687102,0,0,3702.687102,3395.172946,1738.03852)"><stop offset="0" style="stop-color:#8c7030;stop-opacity:1"/><stop offset="0.44" style="stop-color:#9e813f;stop-opacity:1"/><stop offset="1" style="stop-color:#c9aa61;stop-opacity:1"/></linearGradient><linearGradient id="_Linear5" x1="0" y1="0" x2="1" y2="0" gradientUnits="userSpaceOnUse" gradientTransform="matrix(3702.687102,0,0,3702.687102,3395.172946,1738.03852)"><stop offset="0" style="stop-color:#8c7030;stop-opacity:1"/><stop offset="0.44" style="stop-color:#9e813f;stop-opacity:1"/><stop offset="1" style="stop-color:#c9aa61;stop-opacity:1"/></linearGradient><linearGradient id="_Linear6" x1="0" y1="0" x2="1" y2="0" gradientUnits="userSpaceOnUse" gradientTransform="matrix(3702.687102,0,0,3702.687102,3395.172946,1738.03852)"><stop offset="0" style="stop-color:#8c7030;stop-opacity:1"/><stop offset="0.44" style="stop-color:#9e813f;stop-opacity:1"/><stop offset="1" style="stop-color:#c9aa61;stop-opacity:1"/></linearGradient><linearGradient id="_Linear7" x1="0" y1="0" x2="1" y2="0" gradientUnits="userSpaceOnUse" gradientTransform="matrix(3702.687102,0,0,3702.687102,3395.172946,1738.03852)"><stop offset="0" style="stop-color:#8c7030;stop-opacity:1"/><stop offset="0.44" style="stop-color:#9e813f;stop-opacity:1"/><stop offset="1" style="stop-color:#c9aa61;stop-opacity:1"/></linearGradient><linearGradient id="_Linear8" x1="0" y1="0" x2="1" y2="0" gradientUnits="userSpaceOnUse" gradientTransform="matrix(2851.456337,0,0,2851.456337,3512.673173,2688.464015)"><stop offset="0" style="stop-color:#8c7030;stop-opacity:1"/><stop offset="1" style="stop-color:#c9aa61;stop-opacity:1"/></linearGradient><linearGradient id="_Linear9" x1="0" y1="0" x2="1" y2="0" gradientUnits="userSpaceOnUse" gradientTransform="matrix(2851.456337,0,0,2851.456337,3512.673173,2688.464015)"><stop offset="0" style="stop-color:#8c7030;stop-opacity:1"/><stop offset="1" style="stop-color:#c9aa61;stop-opacity:1"/></linearGradient><linearGradient id="_Linear10" x1="0" y1="0" x2="1" y2="0" gradientUnits="userSpaceOnUse" gradientTransform="matrix(2851.456337,0,0,2851.456337,3512.673173,2688.464015)"><stop offset="0" style="stop-color:#8c7030;stop-opacity:1"/><stop offset="1" style="stop-color:#c9aa61;stop-opacity:1"/></linearGradient><linearGradient id="_Linear11" x1="0" y1="0" x2="1" y2="0" gradientUnits="userSpaceOnUse" gradientTransform="matrix(2851.456337,0,0,2851.456337,3512.673173,2688.464015)"><stop offset="0" style="stop-color:#8c7030;stop-opacity:1"/><stop offset="1" style="stop-color:#c9aa61;stop-opacity:1"/></linearGradient><linearGradient id="_Linear12" x1="0" y1="0" x2="1" y2="0" gradientUnits="userSpaceOnUse" gradientTransform="matrix(2851.456337,0,0,2851.456337,3512.673173,2688.464015)"><stop offset="0" style="stop-color:#8c7030;stop-opacity:1"/><stop offset="1" style="stop-color:#c9aa61;stop-opacity:1"/></linearGradient><linearGradient id="_Linear13" x1="0" y1="0" x2="1" y2="0" gradientUnits="userSpaceOnUse" gradientTransform="matrix(2851.456337,0,0,2851.456337,3512.673173,2688.464015)"><stop offset="0" style="stop-color:#8c7030;stop-opacity:1"/><stop offset="1" style="stop-color:#c9aa61;stop-opacity:1"/></linearGradient><linearGradient id="_Linear14" x1="0" y1="0" x2="1" y2="0" gradientUnits="userSpaceOnUse" gradientTransform="matrix(2851.456337,0,0,2851.456337,3512.673173,2688.464015)"><stop offset="0" style="stop-color:#8c7030;stop-opacity:1"/><stop offset="1" style="stop-color:#c9aa61;stop-opacity:1"/></linearGradient><linearGradient id="_Linear15" x1="0" y1="0" x2="1" y2="0" gradientUnits="userSpaceOnUse" gradientTransform="matrix(2851.456337,0,0,2851.456337,3512.673173,2688.464015)"><stop offset="0" style="stop-color:#8c7030;stop-opacity:1"/><stop offset="1" style="stop-color:#c9aa61;stop-opacity:1"/></linearGradient><linearGradient id="_Linear16" x1="0" y1="0" x2="1" y2="0" gradientUnits="userSpaceOnUse" gradientTransform="matrix(2851.456337,0,0,2851.456337,3512.673173,2688.464015)"><stop offset="0" style="stop-color:#8c7030;stop-opacity:1"/><stop offset="1" style="stop-color:#c9aa61;stop-opacity:1"/></linearGradient><linearGradient id="_Linear17" x1="0" y1="0" x2="1" y2="0" gradientUnits="userSpaceOnUse" gradientTransform="matrix(2851.456337,0,0,2851.456337,3512.673173,2688.464015)"><stop offset="0" style="stop-color:#8c7030;stop-opacity:1"/><stop offset="1" style="stop-color:#c9aa61;stop-opacity:1"/></linearGradient><linearGradient id="_Linear18" x1="0" y1="0" x2="1" y2="0" gradientUnits="userSpaceOnUse" gradientTransform="matrix(2851.456337,0,0,2851.456337,3512.673173,2688.464015)"><stop offset="0" style="stop-color:#8c7030;stop-opacity:1"/><stop offset="1" style="stop-color:#c9aa61;stop-opacity:1"/></linearGradient><linearGradient id="_Linear19" x1="0" y1="0" x2="1" y2="0" gradientUnits="userSpaceOnUse" gradientTransform="matrix(2851.456337,0,0,2851.456337,3512.673173,2688.464015)"><stop offset="0" style="stop-color:#8c7030;stop-opacity:1"/><stop offset="1" style="stop-color:#c9aa61;stop-opacity:1"/></linearGradient><linearGradient id="_Linear20" x1="0" y1="0" x2="1" y2="0" gradientUnits="userSpaceOnUse" gradientTransform="matrix(2851.456337,0,0,2851.456337,3512.673173,2688.464015)"><stop offset="0" style="stop-color:#8c7030;stop-opacity:1"/><stop offset="1" style="stop-color:#c9aa61;stop-opacity:1"/></linearGradient><linearGradient id="_Linear21" x1="0" y1="0" x2="1" y2="0" gradientUnits="userSpaceOnUse" gradientTransform="matrix(2851.456337,0,0,2851.456337,3512.673173,2688.464015)"><stop offset="0" style="stop-color:#8c7030;stop-opacity:1"/><stop offset="1" style="stop-color:#c9aa61;stop-opacity:1"/></linearGradient><linearGradient id="_Linear22" x1="0" y1="0" x2="1" y2="0" gradientUnits="userSpaceOnUse" gradientTransform="matrix(2851.456337,0,0,2851.456337,3512.673173,2688.464015)"><stop offset="0" style="stop-color:#8c7030;stop-opacity:1"/><stop offset="1" style="stop-color:#c9aa61;stop-opacity:1"/></linearGradient><linearGradient id="_Linear23" x1="0" y1="0" x2="1" y2="0" gradientUnits="userSpaceOnUse" gradientTransform="matrix(2851.456337,0,0,2851.456337,3512.673173,2688.464015)"><stop offset="0" style="stop-color:#8c7030;stop-opacity:1"/><stop offset="1" style="stop-color:#c9aa61;stop-opacity:1"/></linearGradient><linearGradient id="_Linear24" x1="0" y1="0" x2="1" y2="0" gradientUnits="userSpaceOnUse" gradientTransform="matrix(2851.456337,0,0,2851.456337,3512.673173,2688.464015)"><stop offset="0" style="stop-color:#8c7030;stop-opacity:1"/><stop offset="1" style="stop-color:#c9aa61;stop-opacity:1"/></linearGradient><linearGradient id="_Linear25" x1="0" y1="0" x2="1" y2="0" gradientUnits="userSpaceOnUse" gradientTransform="matrix(56.274273,0,0,4178.364745,2952.127778,2089.182372)"><stop offset="0" style="stop-color:#8c7030;stop-opacity:1"/><stop offset="0.71" style="stop-color:#b59751;stop-opacity:1"/><stop offset="1" style="stop-color:#c9aa61;stop-opacity:1"/></linearGradient></defs></svg>