<?xml version="1.0" encoding="UTF-8" standalone="no"?><!DOCTYPE svg PUBLIC "-//W3C//DTD SVG 1.1//EN" "http://www.w3.org/Graphics/SVG/1.1/DTD/svg11.dtd"><svg width="100%" height="100%" viewBox="0 0 2061 2781" version="1.1" xmlns="http://www.w3.org/2000/svg" xmlns:xlink="http://www.w3.org/1999/xlink" xml:space="preserve" xmlns:serif="http://www.serif.com/" style="fill-rule:evenodd;clip-rule:evenodd;stroke-linejoin:round;stroke-miterlimit:2;"><path d="M85.304,1802.688c204.781,-302.68 473.803,-450.312 329.018,-469.451c-129.997,-17.184 -37.168,183.055 -224.623,218.951c-204.847,39.226 -191.047,-33.238 -188.589,-86.063c14.677,-315.383 242.638,-182.829 260.66,-193.195c1.467,-0.844 116.32,-110.814 240.303,-39.814c173.481,99.345 34.889,252.539 20.436,268.515c-10.866,12.011 -426.237,387.728 -237.896,444.801c124.961,37.867 215.26,-190.13 530.387,-414.533c461.625,-328.725 239.553,-444.554 153.999,-750.674c-32.017,-114.562 -158.627,-492.997 152.417,-697.727c124.04,-81.644 395.837,-109.89 432.321,-55.517c33.388,49.759 12.804,90.106 137.701,95.199c130.772,5.333 83.982,107.516 166.415,109.686c136.586,3.595 154.134,-23.324 174.357,26.187c46.866,114.744 -46.512,155.294 -59.079,160.752c-101.116,43.91 54.83,109.579 57.891,118.458c66.872,193.989 -231.462,100.595 -171.506,149.497c4.529,3.694 235.236,82.413 177.074,351.101c-14.767,68.218 -35.993,67.713 -12.29,131.643c101.348,273.345 -40.143,441.129 -64.618,470.152c-29.49,34.97 4.977,96.846 -62.571,215.957c-25.705,45.326 -41.561,45.419 -37.052,628.767c0.761,98.436 180.224,42.994 183.78,240.845c1.093,60.808 -184.315,43.552 -389.24,43.462c-17.214,-0.008 -208.018,-0.091 -213.268,-28.607c-5.136,-27.896 -4.162,-241.859 -87.452,-344.48c-32.71,-40.302 -243.359,126.393 -203.067,131.42c19.048,2.377 236.437,-21.793 241.22,197.739c1.256,57.658 -30.719,66.596 -719.601,43.236c-22.568,-0.765 -233.486,-210.15 -158.377,-410.302c24.763,-65.989 68.232,-86.279 30.557,-133.809c-66.101,-83.391 -56.086,-153.061 -92.863,-141.038c-10.142,3.315 -152.443,85.508 -275.223,23.884c-152.494,-76.537 -97.817,-280.441 -91.22,-305.043Zm180.09,-464.282c10.903,-11.977 100.33,-110.215 186.567,-78.619c239.547,87.765 -117.65,344.34 -233.374,507.605c-103.275,145.701 39.436,398.976 323.652,87.238c174.573,-191.478 180.7,-181.364 385.111,-338.592c266.148,-204.715 195.274,-379.429 256.049,-301.058c165.689,213.663 343.676,352.94 457.182,582.893c56.521,114.506 87.285,141.457 -17.801,213.04c-35.133,23.932 -40.551,32.294 -29.405,530.554c1.538,68.732 180.656,42.015 179.161,147.835c-0.573,40.544 -235.074,26.305 -248.107,26.173c-71.624,-0.724 -19.044,-236.903 -131.105,-358.191c-127.816,-138.34 -282.643,-782.127 -332.433,-814.848c-113.938,-74.88 101.592,361.833 218.589,759.138c30.045,102.029 -443.816,239.594 -88.283,279.358c14.549,1.627 145.272,16.248 147.515,108.297c0.74,30.351 -221.108,26.382 -240.453,26.036c-62.59,-1.12 -36.299,-160.325 -221.098,-164.704c-258.539,-6.127 127.425,-60.013 207.169,-304.399c173.223,-530.866 -421.744,-493.12 -421.246,-353.2c0.225,63.102 31.552,13.888 101.578,-20.898c88.507,-43.967 226.265,-10.516 264.615,73.809c159.284,350.242 -297.736,562 -302.246,576.1c-30.665,95.863 31.119,67.966 130.771,76.951c148.093,13.353 178.979,115.066 112.34,116.808c-17.833,0.466 -15.507,-2.253 -222.982,-0.639c-117.642,0.915 -96.581,-40.731 -159.701,-141.355c-117.446,-187.228 86.858,-299.53 25.508,-361.822c-69.131,-70.193 -60.243,-74.694 -89.284,-170.737c-22.988,-76.024 -175.319,69.964 -292.725,29.532c-356.604,-122.807 219.527,-607.561 232.872,-624.736c64.29,-82.737 13.656,-259.605 -168.294,-93.702c-10.048,-4.621 -20.096,-9.243 -30.144,-13.864Zm1621.607,-872.039c20.819,110.808 177.639,147.59 64.769,151.888c-41.123,1.566 -217.103,61.691 -385.307,-155.197c-8.642,-11.143 -45.347,-91.568 -76.982,-68.989c-35.194,25.119 68.378,174.746 224.27,269.708c30.427,18.535 352.989,132.296 267.777,373.688c-16.961,48.048 -80.874,-35.982 -196.47,-91.094c-0.08,-0.038 -802.069,-261.614 -548.833,-735.421c111.338,-208.315 353.071,-167.869 300.152,-83.036c-18.007,28.865 -245.166,25.189 -246.381,282.568c-1.614,341.876 761.155,524.145 380.193,339.791c-659.894,-319.333 -154.767,-665.604 60.466,-565.248c15.004,6.996 49.236,101.039 109.088,101.648c12,0.122 144.55,1.471 146.657,31.523c3.304,47.13 -38.042,50.101 -51.288,59.504c-51.537,36.583 -47.514,85.224 -48.109,88.667Zm109.434,813.913c13.109,302.695 -68.786,298.061 -76.531,276.459c-228.692,-637.854 -993.363,-493.396 -952.683,-1127.703c8.85,-137.996 58.451,-171.754 55.184,-129.158c-2.993,39.032 -24.014,313.156 121.247,474.072c211.006,233.747 667.556,385.291 528.804,267.45c-75.881,-64.446 -674.088,-174.726 -603.554,-740.668c21.177,-169.915 219.66,-259.149 194.318,-205.448c-11.084,23.488 -143.582,94.786 -118.538,370.379c43.862,482.668 757.676,368.263 851.752,814.616Zm-109.242,354.346c0.397,24.26 4.243,259.265 -120.87,278.166c-56.834,8.586 25.941,-82.037 -418.291,-584.169c-16.879,-19.079 -404.08,-456.747 -180.911,-262.029c478.633,417.615 513.219,482.115 519.715,417.271c7.667,-76.538 -760.879,-624.35 -570.631,-588.057c26.27,5.011 0.079,47.263 274.728,190.467c329.255,171.677 432.46,315.94 496.26,548.349Zm45.542,1080.767c-76.12,-5.661 -89.654,13.558 -104.803,-28.082c-37.389,-102.773 -36.86,-114.315 -154.266,-147.734c-48.799,-13.891 -29.64,-478.828 -12.005,-490.852c48.806,-33.277 146.141,-111.114 146.438,-45.473c1.138,251.07 -2.736,248.765 -1.14,500.61c0.938,148.024 162.93,58.461 177.275,185.599c4.109,36.418 -13.854,22.873 -51.499,25.932Zm-1667.341,-1376.987c10.048,4.621 20.096,9.243 30.144,13.864c-25.677,44.881 -26.293,42.431 -38.544,93.436c-14.542,60.542 -207.597,97.923 -203.551,21.059c12.607,-239.494 137.737,-136.996 211.951,-128.359Zm1442.825,-997.082c-144.955,-64.422 -152.407,-72.938 -141.247,-94.485c59.882,-115.614 309.332,121.483 141.247,94.485Z" style="fill:url(#_Linear1);"/><defs><linearGradient id="_Linear1" x1="0" y1="0" x2="1" y2="0" gradientUnits="userSpaceOnUse" gradientTransform="matrix(2060.429959,0,0,2060.429959,0,1390.490472)"><stop offset="0" style="stop-color:#8c7030;stop-opacity:1"/><stop offset="0.71" style="stop-color:#b59751;stop-opacity:1"/><stop offset="1" style="stop-color:#c9aa61;stop-opacity:1"/></linearGradient></defs></svg>